<svg width="239" height="51" viewBox="0 0 239 51" fill="none" xmlns="http://www.w3.org/2000/svg">
<path d="M119.859 36.9966C130.075 36.9966 138.357 28.7146 138.357 18.4983C138.357 8.28196 130.075 0 119.859 0C109.642 0 101.36 8.28196 101.36 18.4983C101.36 28.7146 109.642 36.9966 119.859 36.9966Z" fill="url(#paint0_linear_2_2580)"/>
<path d="M143.092 10.2837C144.946 11.1655 146.078 12.2903 146.278 13.6306C146.98 18.3728 135.673 23.9693 121.031 26.1327C106.389 28.2921 93.95 26.1993 93.2484 21.4571C93.0525 20.1168 93.8089 18.7098 95.3295 17.3303C92.5195 19.2076 91.0106 21.1828 91.281 23.0326C92.0178 28.0217 105.449 30.1694 121.278 27.8336C137.107 25.4978 149.347 19.5603 148.61 14.5751C148.34 12.7292 146.325 11.2713 143.092 10.2837Z" fill="white"/>
<path d="M136.508 1.19127C138.558 1.08153 140.09 1.53223 140.905 2.61783C143.782 6.45465 136.508 16.762 124.661 25.6349C112.813 34.5117 100.879 38.5954 98.0065 34.7586C97.1953 33.6769 97.1914 32.0779 97.8733 30.1379C96.2978 33.1282 95.9098 35.5855 97.0307 37.0787C100.052 41.1154 112.887 36.6084 125.691 27.0105C138.499 17.4165 146.427 6.36843 143.406 2.33173C142.289 0.838538 139.82 0.517179 136.508 1.19127Z" fill="white"/>
<path d="M9.44117 31.0004C7.75202 31.0004 6.31762 30.6712 5.14188 30.0088C3.98182 29.4053 3.10002 28.7586 2.49647 28.0689C1.61467 27.1126 0.983684 26.0192 0.599609 24.7847C0.203778 23.5776 0.00390625 21.7395 0.00390625 19.2704C0.00390625 16.8288 0.203778 14.979 0.599609 13.7131C1.01112 12.4198 1.6421 11.3459 2.49647 10.4916C3.12745 9.74302 4.00926 9.06502 5.14188 8.46147C6.29019 7.85792 7.72067 7.55615 9.44117 7.55615C11.2205 7.55615 12.6823 7.85792 13.8306 8.46147C14.9319 9.06502 15.7862 9.7391 16.3898 10.4916C17.2716 11.3459 17.9182 12.4159 18.3298 13.7131C18.6982 15.0378 18.8823 16.8876 18.8823 19.2704C18.8823 21.6807 18.6982 23.5188 18.3298 24.7847C17.9182 26.0505 17.2716 27.144 16.3898 28.0689C16.2409 28.2178 16.0802 28.3824 15.9038 28.5666C15.7275 28.7508 15.5276 28.9154 15.3081 29.0643C14.8966 29.4327 14.4028 29.7463 13.8306 30.0128C12.6509 30.6672 11.1891 31.0004 9.44117 31.0004ZM9.44117 26.3915C10.2485 26.3915 10.9853 26.2308 11.6476 25.9055C12.31 25.5959 12.8077 25.2079 13.1487 24.7376C13.6346 24.1066 13.9364 23.4443 14.054 22.7545C14.1128 22.3861 14.1637 21.9158 14.2068 21.3436C14.2499 20.7715 14.2735 20.0934 14.2735 19.3135C14.2735 18.5062 14.2499 17.8086 14.2068 17.2168C14.1637 16.6289 14.1128 16.1351 14.054 15.7393C13.9364 15.0495 13.6346 14.4146 13.1487 13.8424C12.8116 13.3565 12.31 12.9528 11.6476 12.6275C11.0441 12.3179 10.3112 12.1651 9.44117 12.1651C8.63383 12.1651 7.9127 12.3179 7.28173 12.6275C6.67818 12.9214 6.16477 13.3251 5.73759 13.8424C5.34176 14.3558 5.05566 14.9907 4.8793 15.7393C4.70294 16.5192 4.6128 17.6949 4.6128 19.2665C4.6128 20.8538 4.70294 22.0177 4.8793 22.7506C5.05566 23.4992 5.34176 24.1615 5.73759 24.7337C6.19221 25.204 6.70953 25.592 7.28173 25.9016C7.99893 26.2269 8.72005 26.3915 9.44117 26.3915Z" fill="white"/>
<path d="M23.707 7.84229H42.0094V30.7339H37.4005V12.1651H28.3159V30.7339H23.707V7.84229Z" fill="white"/>
<path d="M52.5319 12.1651H45.4971V7.84229H63.9131V12.1651H57.1408V30.7339H52.5319V12.1651Z" fill="white"/>
<path d="M67.3975 7.84229H72.0064V23.3699L81.9531 7.84229H86.562V30.7339H81.9531V14.9673L72.0064 30.7339H67.3975V7.84229Z" fill="white"/>
<path d="M152.262 7.84229H163.243C165.344 7.84229 167.021 8.3988 168.271 9.50792C169.522 10.617 170.145 12.1063 170.145 13.9718C170.145 16.2645 169.079 17.9066 166.947 18.8903C168.095 19.4037 168.977 20.1013 169.592 20.9753C170.211 21.8492 170.517 22.9505 170.517 24.2713C170.517 26.2544 169.906 27.8298 168.687 28.9899C167.468 30.15 165.767 30.7339 163.592 30.7339H152.258V7.84229H152.262ZM162.385 17.2364C164.544 17.2364 165.626 16.288 165.626 14.3911C165.626 13.5093 165.352 12.8353 164.799 12.3728C164.246 11.9103 163.443 11.6791 162.385 11.6791H156.871V17.2364H162.385ZM162.694 26.8971C163.725 26.8971 164.533 26.6188 165.12 26.0584C165.708 25.498 166.002 24.7572 166.002 23.8323C166.002 22.8604 165.708 22.1118 165.12 21.5827C164.533 21.0537 163.725 20.7872 162.694 20.7872H156.871V26.8971H162.694Z" fill="white"/>
<path d="M181.635 31.0004C179.107 30.969 177.136 30.2949 175.725 28.9703C174.271 27.677 173.542 26.0231 173.542 24.0086C173.542 22.0843 174.173 20.4893 175.439 19.2234C176.673 17.9575 178.527 17.2991 180.996 17.2403H187.369V14.8379C187.396 12.8234 185.832 11.8476 182.67 11.9064C181.58 11.9064 180.679 12.0239 179.958 12.2591C179.268 12.5374 178.723 13.0076 178.327 13.67L174.71 10.9148C176.458 8.62214 179.041 7.50519 182.45 7.56397C185.331 7.53654 187.631 8.07738 189.352 9.19433C191.041 10.3113 191.919 12.2826 191.978 15.1044V30.7417H187.369V28.7116H187.279C186.851 29.4915 186.189 30.0637 185.295 30.4321C184.472 30.8083 183.254 31.0004 181.635 31.0004ZM182.211 26.6776C184.151 26.7363 185.511 26.509 186.291 25.9956C187.012 25.5097 187.373 24.4084 187.373 22.6879V21.034H181.858C179.154 21.0928 177.83 22.0138 177.888 23.7892C177.888 24.5691 178.233 25.2314 178.927 25.7722C179.617 26.3758 180.71 26.6776 182.211 26.6776Z" fill="white"/>
<path d="M197.936 7.84229H202.544V23.3699L212.491 7.84229H217.1V30.7339H212.491V14.9673L202.544 30.7339H197.936V7.84229Z" fill="white"/>
<path d="M227.619 12.1651H220.584V7.84229H239V12.1651H232.228V30.7339H227.619V12.1651Z" fill="white"/>
<path d="M86.5579 36.1931H0V38.3526H86.5579V36.1931Z" fill="url(#paint1_linear_2_2580)"/>
<path d="M152.262 36.1931H238.824V38.3526H152.262V36.1931Z" fill="url(#paint2_linear_2_2580)"/>
<path d="M202.756 1.67339C203.038 2.84521 203.587 3.75053 204.398 4.39327C205.209 5.03601 206.248 5.35737 207.514 5.35737C208.705 5.35737 209.708 5.0556 210.531 4.45205C211.354 3.84851 211.934 2.9236 212.275 1.67339L209.16 1.13647C209.066 1.59109 208.866 1.94381 208.564 2.19856C208.262 2.4533 207.913 2.58263 207.514 2.58263C207.118 2.58263 206.769 2.46114 206.467 2.21423C206.165 1.96733 205.966 1.61069 205.872 1.13647L202.756 1.67339Z" fill="white"/>
<path d="M3.58182 49.2358C2.73529 49.2358 2.00241 48.9537 1.38319 48.3854C0.720857 47.8171 0.383815 46.9001 0.375977 45.6263C0.395572 44.333 0.728695 43.4003 1.38319 42.832C2.01417 42.2559 2.74705 41.9776 3.58182 41.9933C4.1305 42.0129 4.61648 42.1266 5.0319 42.3343C5.46301 42.5577 5.82749 42.8555 6.12142 43.2278L5.07109 44.1606C4.71053 43.6746 4.23632 43.4277 3.64061 43.4199C2.41784 43.4003 1.80254 44.1371 1.7947 45.6263C1.80254 47.0999 2.41784 47.8289 3.64061 47.8132C4.24416 47.7936 4.72229 47.5506 5.07109 47.0764L6.12142 48.0092C5.80397 48.3619 5.43949 48.6519 5.0319 48.8753C4.60864 49.1144 4.12266 49.2358 3.58182 49.2358Z" fill="white"/>
<path d="M11.0723 42.0835H14.4662C15.1168 42.0835 15.6341 42.2559 16.0182 42.5969C16.4023 42.9418 16.5982 43.4003 16.5982 43.9764C16.5982 44.6858 16.269 45.1914 15.6106 45.4971C15.9633 45.6578 16.2377 45.8694 16.4258 46.1398C16.6178 46.4102 16.7119 46.7512 16.7119 47.1588C16.7119 47.7702 16.5238 48.2561 16.1475 48.6167C15.7713 48.9773 15.2461 49.1536 14.576 49.1536H11.0762V42.0835H11.0723ZM14.1997 44.9876C14.866 44.9876 15.1991 44.6937 15.1991 44.1097C15.1991 43.8354 15.1129 43.6276 14.9444 43.4866C14.7758 43.3415 14.525 43.271 14.1997 43.271H12.4988V44.9876H14.1997ZM14.2938 47.97C14.6112 47.97 14.8621 47.8838 15.0423 47.7114C15.2226 47.5389 15.3167 47.3077 15.3167 47.0255C15.3167 46.7277 15.2265 46.4925 15.0423 46.3318C14.8621 46.1672 14.6112 46.0849 14.2938 46.0849H12.4949V47.97H14.2938Z" fill="white"/>
<path d="M24.9566 49.236C24.5764 49.236 24.212 49.1811 23.8671 49.0714C23.7064 49.0204 23.534 48.942 23.3498 48.8323C23.1812 48.7578 23.0166 48.652 22.852 48.5109C22.5424 48.2288 22.2994 47.8604 22.1231 47.4057C21.9193 46.9629 21.8174 46.3711 21.8174 45.6343C21.8174 44.9171 21.9075 44.3371 22.0839 43.8903C22.2681 43.3965 22.4954 43.0242 22.7658 42.7733C23.0362 42.5068 23.3537 42.307 23.7142 42.1737C24.0513 42.0522 24.3922 41.9895 24.7371 41.9895C25.5445 42.0091 26.2303 42.2717 26.7868 42.7851C27.3473 43.3063 27.6334 44.0392 27.653 44.9798V46.1516H23.2479C23.2479 46.7199 23.4125 47.151 23.7378 47.4449C24.0513 47.7428 24.451 47.8956 24.937 47.8956C25.5131 47.8956 26.0304 47.6683 26.4851 47.2098L27.5197 48.0877C26.7751 48.8637 25.9246 49.2477 24.9566 49.236ZM26.2264 44.9876C26.2068 44.4468 26.0618 44.0314 25.7835 43.7414C25.5092 43.4749 25.1604 43.3377 24.7332 43.3377C24.306 43.3377 23.9572 43.4709 23.6829 43.7414C23.4164 44.0314 23.2675 44.4468 23.24 44.9876H26.2264Z" fill="white"/>
<path d="M34.511 43.4199H32.3398V42.0835H38.0265V43.4199H35.9376V49.1536H34.515V43.4199H34.511Z" fill="white"/>
<path d="M45.6307 49.2359C45.1094 49.2359 44.6666 49.134 44.3021 48.9303C43.9415 48.7421 43.6711 48.5422 43.4869 48.3306C43.2126 48.0367 43.0205 47.6957 42.899 47.3156C42.7775 46.9433 42.7148 46.375 42.7148 45.6147C42.7148 44.8622 42.7775 44.29 42.899 43.8981C43.0244 43.4983 43.2204 43.1652 43.4869 42.9026C43.6829 42.6714 43.9533 42.4637 44.3021 42.2756C44.6548 42.0875 45.0977 41.9973 45.6307 41.9973C46.1793 41.9973 46.6301 42.0914 46.9867 42.2756C47.3277 42.4598 47.5902 42.6714 47.7784 42.9026C48.0527 43.1652 48.2526 43.4983 48.378 43.8981C48.4916 44.3057 48.5465 44.8779 48.5465 45.6147C48.5465 46.3593 48.4916 46.9276 48.378 47.3156C48.2486 47.7075 48.0527 48.0445 47.7784 48.3306C47.7313 48.3776 47.6843 48.4286 47.6294 48.4835C47.5746 48.5423 47.5118 48.5932 47.4452 48.6363C47.3198 48.75 47.167 48.848 46.9906 48.9303C46.6261 49.134 46.1715 49.2359 45.6307 49.2359ZM45.6307 47.8133C45.8815 47.8133 46.1088 47.7624 46.3126 47.6644C46.5164 47.5703 46.6732 47.4488 46.7751 47.3038C46.924 47.1079 47.018 46.9041 47.0533 46.6924C47.0729 46.5788 47.0886 46.4338 47.1003 46.2574C47.1121 46.081 47.1199 45.8733 47.1199 45.6304C47.1199 45.3795 47.1121 45.164 47.1003 44.9837C47.0847 44.8034 47.069 44.6506 47.0533 44.5291C47.018 44.3174 46.924 44.1215 46.7751 43.9412C46.6692 43.7923 46.5164 43.6669 46.3126 43.565C46.1284 43.4709 45.9011 43.4239 45.6307 43.4239C45.3798 43.4239 45.1565 43.4709 44.9644 43.565C44.7763 43.6551 44.6195 43.7805 44.4863 43.9412C44.3648 44.1019 44.2747 44.2939 44.2198 44.5291C44.1649 44.7681 44.1375 45.1326 44.1375 45.6186C44.1375 46.1085 44.1649 46.469 44.2198 46.6963C44.2747 46.9276 44.3648 47.1314 44.4863 47.3077C44.6274 47.4527 44.7841 47.5742 44.9644 47.6683C45.1878 47.7623 45.4112 47.8133 45.6307 47.8133Z" fill="white"/>
<path d="M53.1631 47.8133H53.9743C54.0958 47.5076 54.2056 47.1901 54.3036 46.8609C54.4015 46.5317 54.4799 46.1437 54.5387 45.7087C54.5975 45.2737 54.6445 44.7603 54.6798 44.1763C54.7151 43.5885 54.7307 42.8948 54.7307 42.0835H59.5003V47.8133H60.4762V50.9682H59.1398V49.1575H54.5074V50.9682H53.167V47.8133H53.1631ZM58.0738 47.8133V43.4199H56.0789C56.0789 43.996 56.0632 44.5055 56.0319 44.9406C56.0005 45.3756 55.9574 45.7714 55.8986 46.1202C55.8399 46.469 55.7732 46.7786 55.6988 47.0529C55.6204 47.3273 55.5381 47.582 55.4519 47.8133H58.0738Z" fill="white"/>
<path d="M65.4531 42.0835H66.8758V46.8805L69.9484 42.0835H71.371V49.1536H69.9484V44.2821L66.8758 49.1536H65.4531V42.0835Z" fill="white"/>
<path d="M79.743 49.2359C79.2217 49.2359 78.7789 49.134 78.4144 48.9303C78.0538 48.7421 77.7834 48.5422 77.5992 48.3306C77.3249 48.0367 77.1328 47.6957 77.0113 47.3156C76.8899 46.9433 76.8271 46.375 76.8271 45.6147C76.8271 44.8622 76.8899 44.29 77.0113 43.8981C77.1368 43.4983 77.3327 43.1652 77.5992 42.9026C77.7952 42.6714 78.0656 42.4637 78.4144 42.2756C78.7671 42.0875 79.21 41.9973 79.743 41.9973C80.2917 41.9973 80.7424 42.0914 81.099 42.2756C81.44 42.4598 81.7025 42.6714 81.8907 42.9026C82.165 43.1652 82.3649 43.4983 82.4903 43.8981C82.6039 44.3057 82.6588 44.8779 82.6588 45.6147C82.6588 46.3593 82.6039 46.9276 82.4903 47.3156C82.361 47.7075 82.165 48.0445 81.8907 48.3306C81.8436 48.3776 81.7966 48.4286 81.7417 48.4835C81.6869 48.5423 81.6242 48.5932 81.5575 48.6363C81.4321 48.75 81.2793 48.848 81.1029 48.9303C80.7345 49.134 80.2838 49.2359 79.743 49.2359ZM79.743 47.8133C79.9938 47.8133 80.2211 47.7624 80.4249 47.6644C80.6287 47.5703 80.7855 47.4488 80.8874 47.3038C81.0363 47.1079 81.1304 46.9041 81.1656 46.6924C81.1852 46.5788 81.2009 46.4338 81.2127 46.2574C81.2244 46.081 81.2323 45.8733 81.2323 45.6304C81.2323 45.3795 81.2244 45.164 81.2127 44.9837C81.197 44.8034 81.1813 44.6506 81.1656 44.5291C81.1304 44.3174 81.0363 44.1215 80.8874 43.9412C80.7816 43.7923 80.6287 43.6669 80.4249 43.565C80.2407 43.4709 80.0134 43.4239 79.743 43.4239C79.4922 43.4239 79.2688 43.4709 79.0767 43.565C78.8886 43.6551 78.7319 43.7805 78.5986 43.9412C78.4771 44.1019 78.387 44.2939 78.3321 44.5291C78.2772 44.7681 78.2498 45.1326 78.2498 45.6186C78.2498 46.1085 78.2772 46.469 78.3321 46.6963C78.387 46.9276 78.4771 47.1314 78.5986 47.3077C78.7397 47.4527 78.8965 47.5742 79.0767 47.6683C79.2962 47.7623 79.5196 47.8133 79.743 47.8133Z" fill="white"/>
<path d="M87.2705 47.8133H88.0818C88.2033 47.5076 88.313 47.1901 88.411 46.8609C88.509 46.5317 88.5873 46.1437 88.6461 45.7087C88.7049 45.2737 88.7519 44.7603 88.7872 44.1763C88.8225 43.5885 88.8382 42.8948 88.8382 42.0835H93.6077V47.8133H94.5836V50.9682H93.2472V49.1575H88.6148V50.9682H87.2744V47.8133H87.2705ZM92.1812 47.8133V43.4199H90.1863C90.1863 43.996 90.1707 44.5055 90.1393 44.9406C90.108 45.3756 90.0649 45.7714 90.0061 46.1202C89.9473 46.469 89.8806 46.7786 89.8062 47.0529C89.7278 47.3273 89.6455 47.582 89.5593 47.8133H92.1812Z" fill="white"/>
<path d="M99.5654 42.0835H100.988V44.8426H103.794V42.0835H105.217V49.1536H103.794V46.1829H100.988V49.1536H99.5654V42.0835Z" fill="white"/>
<path d="M113.584 49.2359C113.063 49.2359 112.62 49.134 112.255 48.9303C111.895 48.7421 111.624 48.5422 111.44 48.3306C111.166 48.0367 110.974 47.6957 110.852 47.3156C110.731 46.9433 110.668 46.375 110.668 45.6147C110.668 44.8622 110.731 44.29 110.852 43.8981C110.978 43.4983 111.174 43.1652 111.44 42.9026C111.636 42.6714 111.906 42.4637 112.255 42.2756C112.608 42.0875 113.051 41.9973 113.584 41.9973C114.132 41.9973 114.583 42.0914 114.94 42.2756C115.281 42.4598 115.543 42.6714 115.731 42.9026C116.006 43.1652 116.206 43.4983 116.331 43.8981C116.445 44.3057 116.5 44.8779 116.5 45.6147C116.5 46.3593 116.445 46.9276 116.331 47.3156C116.202 47.7075 116.006 48.0445 115.731 48.3306C115.684 48.3776 115.637 48.4286 115.583 48.4835C115.528 48.5423 115.465 48.5932 115.398 48.6363C115.273 48.75 115.12 48.848 114.944 48.9303C114.575 49.134 114.125 49.2359 113.584 49.2359ZM113.584 47.8133C113.835 47.8133 114.062 47.7624 114.266 47.6644C114.47 47.5703 114.626 47.4488 114.728 47.3038C114.877 47.1079 114.971 46.9041 115.006 46.6924C115.026 46.5788 115.042 46.4338 115.053 46.2574C115.065 46.081 115.073 45.8733 115.073 45.6304C115.073 45.3795 115.065 45.164 115.053 44.9837C115.038 44.8034 115.022 44.6506 115.006 44.5291C114.971 44.3174 114.877 44.1215 114.728 43.9412C114.622 43.7923 114.47 43.6669 114.266 43.565C114.082 43.4709 113.854 43.4239 113.584 43.4239C113.333 43.4239 113.11 43.4709 112.918 43.565C112.729 43.6551 112.573 43.7805 112.439 43.9412C112.318 44.1019 112.228 44.2939 112.173 44.5291C112.118 44.7681 112.091 45.1326 112.091 45.6186C112.091 46.1085 112.118 46.469 112.173 46.6963C112.228 46.9276 112.318 47.1314 112.439 47.3077C112.58 47.4527 112.737 47.5742 112.918 47.6683C113.141 47.7623 113.36 47.8133 113.584 47.8133Z" fill="white"/>
<path d="M124.746 49.236C124.366 49.236 124.001 49.1811 123.656 49.0714C123.495 49.0204 123.323 48.942 123.139 48.8323C122.97 48.7578 122.806 48.652 122.641 48.5109C122.331 48.2288 122.088 47.8604 121.912 47.4057C121.708 46.9629 121.606 46.3711 121.606 45.6343C121.606 44.9171 121.697 44.3371 121.873 43.8903C122.057 43.3965 122.284 43.0242 122.555 42.7733C122.825 42.5068 123.143 42.307 123.503 42.1737C123.84 42.0522 124.181 41.9895 124.526 41.9895C125.334 42.0091 126.019 42.2717 126.576 42.7851C127.136 43.3063 127.422 44.0392 127.442 44.9798V46.1516H123.037C123.037 46.7199 123.202 47.151 123.527 47.4449C123.84 47.7428 124.24 47.8956 124.726 47.8956C125.302 47.8956 125.819 47.6683 126.274 47.2098L127.309 48.0877C126.564 48.8637 125.714 49.2477 124.746 49.236ZM126.012 44.9876C125.992 44.4468 125.847 44.0314 125.569 43.7414C125.294 43.4749 124.946 43.3377 124.518 43.3377C124.091 43.3377 123.742 43.4709 123.468 43.7414C123.202 44.0314 123.053 44.4468 123.025 44.9876H126.012Z" fill="white"/>
<path d="M142.763 49.2359C142.241 49.2359 141.798 49.134 141.434 48.9303C141.073 48.7421 140.803 48.5422 140.619 48.3306C140.344 48.0367 140.152 47.6957 140.031 47.3156C139.909 46.9433 139.847 46.375 139.847 45.6147C139.847 44.8622 139.909 44.29 140.031 43.8981C140.156 43.4983 140.352 43.1652 140.619 42.9026C140.815 42.6714 141.085 42.4637 141.434 42.2756C141.787 42.0875 142.23 41.9973 142.763 41.9973C143.311 41.9973 143.762 42.0914 144.119 42.2756C144.46 42.4598 144.722 42.6714 144.91 42.9026C145.185 43.1652 145.384 43.4983 145.51 43.8981C145.623 44.3057 145.678 44.8779 145.678 45.6147C145.678 46.3593 145.623 46.9276 145.51 47.3156C145.38 47.7075 145.185 48.0445 144.91 48.3306C144.863 48.3776 144.816 48.4286 144.761 48.4835C144.706 48.5423 144.644 48.5932 144.577 48.6363C144.452 48.75 144.299 48.848 144.122 48.9303C143.754 49.134 143.303 49.2359 142.763 49.2359ZM142.763 47.8133C143.013 47.8133 143.241 47.7624 143.444 47.6644C143.648 47.5703 143.805 47.4488 143.907 47.3038C144.056 47.1079 144.15 46.9041 144.185 46.6924C144.205 46.5788 144.22 46.4338 144.232 46.2574C144.244 46.081 144.252 45.8733 144.252 45.6304C144.252 45.3795 144.244 45.164 144.232 44.9837C144.217 44.8034 144.201 44.6506 144.185 44.5291C144.15 44.3174 144.056 44.1215 143.907 43.9412C143.801 43.7923 143.648 43.6669 143.444 43.565C143.26 43.4709 143.033 43.4239 142.763 43.4239C142.512 43.4239 142.288 43.4709 142.096 43.565C141.908 43.6551 141.751 43.7805 141.618 43.9412C141.497 44.1019 141.407 44.2939 141.352 44.5291C141.297 44.7681 141.269 45.1326 141.269 45.6186C141.269 46.1085 141.297 46.469 141.352 46.6963C141.407 46.9276 141.497 47.1314 141.618 47.3077C141.759 47.4527 141.916 47.5742 142.096 47.6683C142.32 47.7623 142.543 47.8133 142.763 47.8133Z" fill="white"/>
<path d="M153.795 49.2358C152.948 49.2358 152.215 48.9537 151.596 48.3854C150.934 47.8171 150.597 46.9001 150.589 45.6263C150.608 44.333 150.942 43.4003 151.596 42.832C152.227 42.2559 152.96 41.9776 153.795 41.9933C154.343 42.0129 154.829 42.1266 155.245 42.3343C155.676 42.5577 156.04 42.8555 156.334 43.2278L155.284 44.1606C154.923 43.6746 154.449 43.4277 153.853 43.4199C152.631 43.4003 152.015 44.1371 152.008 45.6263C152.015 47.0999 152.631 47.8289 153.853 47.8132C154.457 47.7936 154.935 47.5506 155.284 47.0764L156.334 48.0092C156.017 48.3619 155.652 48.6519 155.245 48.8753C154.818 49.1144 154.336 49.2358 153.795 49.2358Z" fill="white"/>
<path d="M161.284 42.0835H164.678C165.329 42.0835 165.846 42.2559 166.23 42.5969C166.614 42.9418 166.81 43.4003 166.81 43.9764C166.81 44.6858 166.481 45.1914 165.823 45.4971C166.175 45.6578 166.45 45.8694 166.638 46.1398C166.83 46.4102 166.924 46.7512 166.924 47.1588C166.924 47.7702 166.736 48.2561 166.359 48.6167C165.983 48.9773 165.458 49.1536 164.788 49.1536H161.288V42.0835H161.284ZM164.412 44.9876C165.078 44.9876 165.411 44.6937 165.411 44.1097C165.411 43.8354 165.325 43.6276 165.156 43.4866C164.988 43.3415 164.737 43.271 164.412 43.271H162.711V44.9876H164.412ZM164.506 47.97C164.823 47.97 165.074 47.8838 165.254 47.7114C165.435 47.5389 165.529 47.3077 165.529 47.0255C165.529 46.7277 165.438 46.4925 165.254 46.3318C165.074 46.1672 164.823 46.0849 164.506 46.0849H162.707V47.97H164.506Z" fill="white"/>
<path d="M175.169 49.236C174.789 49.236 174.425 49.1811 174.08 49.0714C173.919 49.0204 173.747 48.942 173.563 48.8323C173.394 48.7578 173.23 48.652 173.065 48.5109C172.755 48.2288 172.512 47.8604 172.336 47.4057C172.132 46.9629 172.03 46.3711 172.03 45.6343C172.03 44.9171 172.12 44.3371 172.297 43.8903C172.481 43.3965 172.708 43.0242 172.979 42.7733C173.249 42.5068 173.567 42.307 173.927 42.1737C174.264 42.0522 174.605 41.9895 174.95 41.9895C175.757 42.0091 176.443 42.2717 177 42.7851C177.56 43.3063 177.846 44.0392 177.866 44.9798V46.1516H173.461C173.461 46.7199 173.625 47.151 173.951 47.4449C174.264 47.7428 174.664 47.8956 175.15 47.8956C175.726 47.8956 176.243 47.6683 176.698 47.2098L177.733 48.0877C176.988 48.8637 176.138 49.2477 175.169 49.236ZM176.435 44.9876C176.416 44.4468 176.271 44.0314 175.993 43.7414C175.718 43.4749 175.369 43.3377 174.942 43.3377C174.515 43.3377 174.166 43.4709 173.892 43.7414C173.625 44.0314 173.476 44.4468 173.449 44.9876H176.435Z" fill="white"/>
<path d="M192.034 49.1536H183.313V42.0835H184.736V47.8133H187.135V42.0835H188.557V47.8133H190.94V42.0835H192.363V47.8133H193.37V50.9682H192.03V49.1536H192.034Z" fill="white"/>
<path d="M201.141 49.236C200.761 49.236 200.397 49.1811 200.052 49.0714C199.891 49.0204 199.719 48.942 199.534 48.8323C199.366 48.7578 199.201 48.652 199.037 48.5109C198.727 48.2288 198.484 47.8604 198.308 47.4057C198.104 46.9629 198.002 46.3711 198.002 45.6343C198.002 44.9171 198.092 44.3371 198.268 43.8903C198.453 43.3965 198.68 43.0242 198.95 42.7733C199.221 42.5068 199.538 42.307 199.899 42.1737C200.236 42.0522 200.577 41.9895 200.922 41.9895C201.729 42.0091 202.415 42.2717 202.971 42.7851C203.532 43.3063 203.818 44.0392 203.838 44.9798V46.1516H199.425C199.425 46.7199 199.589 47.151 199.914 47.4449C200.228 47.7428 200.628 47.8956 201.114 47.8956C201.69 47.8956 202.207 47.6683 202.662 47.2098L203.696 48.0877C202.96 48.8637 202.109 49.2477 201.141 49.236ZM202.407 44.9876C202.387 44.4468 202.242 44.0314 201.964 43.7414C201.69 43.4749 201.341 43.3377 200.914 43.3377C200.487 43.3377 200.138 43.4709 199.864 43.7414C199.597 44.0314 199.448 44.4468 199.421 44.9876H202.407Z" fill="white"/>
<path d="M209.285 42.0835H210.708V44.8426H213.514V42.0835H214.937V49.1536H213.514V46.1829H210.708V49.1536H209.285V42.0835Z" fill="white"/>
<path d="M220.741 42.0835H222.164V46.8805L225.236 42.0835H226.659V49.1536H225.236V44.2821L222.164 49.1536H220.741V42.0835Z" fill="white"/>
<path d="M235.253 49.236C234.873 49.236 234.509 49.1811 234.164 49.0714C234.003 49.0204 233.831 48.942 233.647 48.8323C233.478 48.7578 233.314 48.652 233.149 48.5109C232.839 48.2288 232.596 47.8604 232.42 47.4057C232.216 46.9629 232.114 46.3711 232.114 45.6343C232.114 44.9171 232.204 44.3371 232.381 43.8903C232.565 43.3965 232.792 43.0242 233.063 42.7733C233.333 42.5068 233.651 42.307 234.011 42.1737C234.348 42.0522 234.689 41.9895 235.034 41.9895C235.841 42.0091 236.527 42.2717 237.084 42.7851C237.644 43.3063 237.93 44.0392 237.95 44.9798V46.1516H233.545C233.545 46.7199 233.709 47.151 234.035 47.4449C234.348 47.7428 234.748 47.8956 235.234 47.8956C235.81 47.8956 236.327 47.6683 236.782 47.2098L237.817 48.0877C237.072 48.8637 236.218 49.2477 235.253 49.236ZM236.519 44.9876C236.5 44.4468 236.355 44.0314 236.077 43.7414C235.802 43.4749 235.453 43.3377 235.026 43.3377C234.599 43.3377 234.25 43.4709 233.976 43.7414C233.709 44.0314 233.56 44.4468 233.533 44.9876H236.519Z" fill="white"/>
<defs>
<linearGradient id="paint0_linear_2_2580" x1="105.276" y1="29.8836" x2="134.444" y2="7.11725" gradientUnits="userSpaceOnUse">
<stop stop-color="#3CB63B"/>
<stop offset="0.6345"/>
<stop offset="1"/>
</linearGradient>
<linearGradient id="paint1_linear_2_2580" x1="0.000744635" y1="37.2732" x2="86.5606" y2="37.2732" gradientUnits="userSpaceOnUse">
<stop stop-color="#3CB63B"/>
<stop offset="0.6345"/>
<stop offset="1"/>
</linearGradient>
<linearGradient id="paint2_linear_2_2580" x1="238.822" y1="37.2732" x2="152.262" y2="37.2732" gradientUnits="userSpaceOnUse">
<stop stop-color="#3CB63B"/>
<stop offset="0.6345"/>
<stop offset="1"/>
</linearGradient>
</defs>
</svg>
