<svg width="16" height="16" viewBox="0 0 16 16" fill="none" xmlns="http://www.w3.org/2000/svg">
<path d="M10.5804 9.06358C10.5804 10.4835 9.4229 11.6385 8 11.6385C6.5771 11.6385 5.42003 10.4835 5.42003 9.06358C5.42003 7.64371 6.5771 6.48865 8 6.48865C9.4229 6.48865 10.5804 7.64415 10.5804 9.06358ZM16 5.4073V12.7207C16 13.6957 15.2078 14.4862 14.2308 14.4862H1.76923C0.792171 14.4862 0 13.6957 0 12.7207V5.4073C0 4.43233 0.792171 3.64184 1.76923 3.64184H3.94538V3.03099C3.94538 2.17783 4.63803 1.48621 5.49345 1.48621H10.5066C11.362 1.48621 12.0546 2.17783 12.0546 3.03099V3.6414H14.2308C15.2078 3.64184 16 4.43233 16 5.4073ZM11.9073 9.06358C11.9073 6.91369 10.1545 5.16455 8 5.16455C5.84597 5.16455 4.09311 6.91369 4.09311 9.06358C4.09311 11.2135 5.84597 12.9626 8 12.9626C10.1545 12.9626 11.9073 11.2135 11.9073 9.06358Z" fill="white"/>
</svg>
