<svg width="239" height="51" viewBox="0 0 239 51" fill="none" xmlns="http://www.w3.org/2000/svg">
<g opacity="0.3">
<path d="M119.859 36.9966C130.075 36.9966 138.357 28.7146 138.357 18.4983C138.357 8.28196 130.075 0 119.859 0C109.642 0 101.36 8.28196 101.36 18.4983C101.36 28.7146 109.642 36.9966 119.859 36.9966Z" fill="url(#paint0_linear_17_609)"/>
<path d="M143.091 10.2837C144.945 11.1655 146.078 12.2903 146.278 13.6306C146.979 18.3728 135.673 23.9693 121.031 26.1327C106.389 28.2921 93.9495 26.1993 93.2479 21.4571C93.052 20.1168 93.8084 18.7098 95.329 17.3303C92.519 19.2076 91.0101 21.1828 91.2805 23.0326C92.0173 28.0217 105.448 30.1694 121.278 27.8336C137.107 25.4978 149.346 19.5603 148.61 14.5751C148.339 12.7292 146.325 11.2713 143.091 10.2837Z" fill="black"/>
<path d="M136.508 1.19127C138.557 1.08153 140.09 1.53223 140.905 2.61783C143.781 6.45465 136.508 16.762 124.66 25.6349C112.813 34.5117 100.879 38.5954 98.0061 34.7586C97.1948 33.6769 97.1909 32.0779 97.8728 30.1379C96.2973 33.1282 95.9093 35.5855 97.0302 37.0787C100.052 41.1154 112.887 36.6084 125.691 27.0105C138.498 17.4165 146.427 6.36843 143.405 2.33173C142.288 0.838538 139.819 0.517179 136.508 1.19127Z" fill="black"/>
<path d="M9.44117 31.0004C7.75202 31.0004 6.31762 30.6712 5.14188 30.0088C3.98182 29.4053 3.10002 28.7586 2.49647 28.0689C1.61467 27.1126 0.983684 26.0192 0.599609 24.7847C0.203778 23.5776 0.00390625 21.7395 0.00390625 19.2704C0.00390625 16.8288 0.203778 14.979 0.599609 13.7131C1.01112 12.4198 1.6421 11.3459 2.49647 10.4916C3.12745 9.74302 4.00926 9.06502 5.14188 8.46147C6.29019 7.85792 7.72067 7.55615 9.44117 7.55615C11.2205 7.55615 12.6823 7.85792 13.8306 8.46147C14.9319 9.06502 15.7862 9.7391 16.3898 10.4916C17.2716 11.3459 17.9182 12.4159 18.3298 13.7131C18.6982 15.0378 18.8823 16.8876 18.8823 19.2704C18.8823 21.6807 18.6982 23.5188 18.3298 24.7847C17.9182 26.0505 17.2716 27.144 16.3898 28.0689C16.2409 28.2178 16.0802 28.3824 15.9038 28.5666C15.7275 28.7508 15.5276 28.9154 15.3081 29.0643C14.8966 29.4327 14.4028 29.7463 13.8306 30.0128C12.6509 30.6672 11.1891 31.0004 9.44117 31.0004ZM9.44117 26.3915C10.2485 26.3915 10.9853 26.2308 11.6476 25.9055C12.31 25.5959 12.8077 25.2079 13.1487 24.7376C13.6346 24.1066 13.9364 23.4443 14.054 22.7545C14.1128 22.3861 14.1637 21.9158 14.2068 21.3436C14.2499 20.7715 14.2735 20.0934 14.2735 19.3135C14.2735 18.5062 14.2499 17.8086 14.2068 17.2168C14.1637 16.6289 14.1128 16.1351 14.054 15.7393C13.9364 15.0495 13.6346 14.4146 13.1487 13.8424C12.8116 13.3565 12.31 12.9528 11.6476 12.6275C11.0441 12.3179 10.3112 12.1651 9.44117 12.1651C8.63383 12.1651 7.9127 12.3179 7.28173 12.6275C6.67818 12.9214 6.16477 13.3251 5.73759 13.8424C5.34176 14.3558 5.05566 14.9907 4.8793 15.7393C4.70294 16.5192 4.6128 17.6949 4.6128 19.2665C4.6128 20.8538 4.70294 22.0177 4.8793 22.7506C5.05566 23.4992 5.34176 24.1615 5.73759 24.7337C6.19221 25.204 6.70953 25.592 7.28173 25.9016C7.99893 26.2269 8.72005 26.3915 9.44117 26.3915Z" fill="black"/>
<path d="M23.707 7.84229H42.0094V30.7339H37.4005V12.1651H28.3159V30.7339H23.707V7.84229Z" fill="black"/>
<path d="M52.5319 12.1651H45.4971V7.84229H63.9131V12.1651H57.1408V30.7339H52.5319V12.1651Z" fill="black"/>
<path d="M67.397 7.84229H72.0059V23.3699L81.9526 7.84229H86.5615V30.7339H81.9526V14.9673L72.0059 30.7339H67.397V7.84229Z" fill="black"/>
<path d="M152.262 7.84229H163.243C165.344 7.84229 167.021 8.3988 168.271 9.50792C169.522 10.617 170.145 12.1063 170.145 13.9718C170.145 16.2645 169.079 17.9066 166.947 18.8903C168.095 19.4037 168.977 20.1013 169.592 20.9753C170.211 21.8492 170.517 22.9505 170.517 24.2713C170.517 26.2544 169.906 27.8298 168.687 28.9899C167.468 30.15 165.767 30.7339 163.592 30.7339H152.258V7.84229H152.262ZM162.385 17.2364C164.544 17.2364 165.626 16.288 165.626 14.3911C165.626 13.5093 165.352 12.8353 164.799 12.3728C164.246 11.9103 163.443 11.6791 162.385 11.6791H156.871V17.2364H162.385ZM162.694 26.8971C163.725 26.8971 164.533 26.6188 165.12 26.0584C165.708 25.498 166.002 24.7572 166.002 23.8323C166.002 22.8604 165.708 22.1118 165.12 21.5827C164.533 21.0537 163.725 20.7872 162.694 20.7872H156.871V26.8971H162.694Z" fill="black"/>
<path d="M181.635 31.0004C179.107 30.969 177.136 30.2949 175.725 28.9703C174.271 27.677 173.542 26.0231 173.542 24.0086C173.542 22.0843 174.173 20.4893 175.439 19.2234C176.673 17.9575 178.527 17.2991 180.996 17.2403H187.369V14.8379C187.396 12.8234 185.832 11.8476 182.67 11.9064C181.58 11.9064 180.679 12.0239 179.958 12.2591C179.268 12.5374 178.723 13.0076 178.327 13.67L174.71 10.9148C176.458 8.62214 179.041 7.50519 182.45 7.56397C185.331 7.53654 187.631 8.07738 189.352 9.19433C191.041 10.3113 191.919 12.2826 191.978 15.1044V30.7417H187.369V28.7116H187.279C186.851 29.4915 186.189 30.0637 185.295 30.4321C184.472 30.8083 183.254 31.0004 181.635 31.0004ZM182.211 26.6776C184.151 26.7363 185.511 26.509 186.291 25.9956C187.012 25.5097 187.373 24.4084 187.373 22.6879V21.034H181.858C179.154 21.0928 177.83 22.0138 177.888 23.7892C177.888 24.5691 178.233 25.2314 178.927 25.7722C179.617 26.3758 180.71 26.6776 182.211 26.6776Z" fill="black"/>
<path d="M197.936 7.84229H202.544V23.3699L212.491 7.84229H217.1V30.7339H212.491V14.9673L202.544 30.7339H197.936V7.84229Z" fill="black"/>
<path d="M227.619 12.1651H220.584V7.84229H239V12.1651H232.228V30.7339H227.619V12.1651Z" fill="black"/>
<path d="M86.5579 36.1931H0V38.3526H86.5579V36.1931Z" fill="url(#paint1_linear_17_609)"/>
<path d="M152.262 36.1931H238.824V38.3526H152.262V36.1931Z" fill="url(#paint2_linear_17_609)"/>
<path d="M202.756 1.67339C203.039 2.84521 203.587 3.75053 204.398 4.39327C205.21 5.03601 206.248 5.35737 207.514 5.35737C208.706 5.35737 209.709 5.0556 210.532 4.45205C211.355 3.84851 211.935 2.9236 212.276 1.67339L209.16 1.13647C209.066 1.59109 208.866 1.94381 208.564 2.19856C208.263 2.4533 207.914 2.58263 207.514 2.58263C207.118 2.58263 206.77 2.46114 206.468 2.21423C206.166 1.96733 205.966 1.61069 205.872 1.13647L202.756 1.67339Z" fill="black"/>
<path d="M3.58182 49.236C2.73529 49.236 2.00241 48.9538 1.38319 48.3855C0.720857 47.8172 0.383815 46.9002 0.375977 45.6265C0.395572 44.3332 0.728695 43.4004 1.38319 42.8321C2.01417 42.256 2.74705 41.9777 3.58182 41.9934C4.1305 42.013 4.61648 42.1267 5.0319 42.3344C5.46301 42.5578 5.82749 42.8556 6.12142 43.228L5.07109 44.1607C4.71053 43.6747 4.23632 43.4278 3.64061 43.42C2.41784 43.4004 1.80254 44.1372 1.7947 45.6265C1.80254 47.1001 2.41784 47.829 3.64061 47.8133C4.24416 47.7937 4.72229 47.5508 5.07109 47.0765L6.12142 48.0093C5.80397 48.362 5.43949 48.652 5.0319 48.8754C4.60864 49.1145 4.12266 49.236 3.58182 49.236Z" fill="black"/>
<path d="M11.0718 42.0835H14.4657C15.1163 42.0835 15.6336 42.2559 16.0177 42.5969C16.4018 42.9418 16.5978 43.4003 16.5978 43.9764C16.5978 44.6858 16.2685 45.1914 15.6101 45.4971C15.9629 45.6578 16.2372 45.8694 16.4253 46.1398C16.6173 46.4102 16.7114 46.7512 16.7114 47.1588C16.7114 47.7702 16.5233 48.2561 16.1471 48.6167C15.7708 48.9773 15.2457 49.1536 14.5755 49.1536H11.0757V42.0835H11.0718ZM14.1992 44.9876C14.8655 44.9876 15.1986 44.6937 15.1986 44.1097C15.1986 43.8354 15.1124 43.6276 14.9439 43.4866C14.7754 43.3415 14.5245 43.271 14.1992 43.271H12.4983V44.9876H14.1992ZM14.2933 47.97C14.6108 47.97 14.8616 47.8838 15.0419 47.7114C15.2221 47.5389 15.3162 47.3077 15.3162 47.0255C15.3162 46.7277 15.2261 46.4925 15.0419 46.3318C14.8616 46.1672 14.6108 46.0849 14.2933 46.0849H12.4944V47.97H14.2933Z" fill="black"/>
<path d="M24.9571 49.2358C24.5769 49.2358 24.2125 49.181 23.8676 49.0712C23.7069 49.0203 23.5345 48.9419 23.3503 48.8322C23.1817 48.7577 23.0171 48.6519 22.8525 48.5108C22.5429 48.2286 22.2999 47.8602 22.1236 47.4056C21.9198 46.9628 21.8179 46.371 21.8179 45.6342C21.8179 44.917 21.908 44.337 22.0844 43.8902C22.2686 43.3964 22.4959 43.024 22.7663 42.7732C23.0367 42.5067 23.3542 42.3068 23.7147 42.1736C24.0518 42.0521 24.3927 41.9894 24.7376 41.9894C25.545 42.009 26.2308 42.2716 26.7873 42.785C27.3478 43.3062 27.6339 44.0391 27.6534 44.9797V46.1515H23.2484C23.2484 46.7198 23.413 47.1509 23.7382 47.4448C24.0518 47.7427 24.4515 47.8955 24.9375 47.8955C25.5136 47.8955 26.0309 47.6682 26.4856 47.2097L27.5202 48.0875C26.7756 48.8635 25.9251 49.2476 24.9571 49.2358ZM26.2269 44.9875C26.2073 44.4467 26.0623 44.0313 25.784 43.7412C25.5097 43.4747 25.1609 43.3376 24.7337 43.3376C24.3065 43.3376 23.9577 43.4708 23.6834 43.7412C23.4169 44.0313 23.268 44.4467 23.2405 44.9875H26.2269Z" fill="black"/>
<path d="M34.5115 43.4199H32.3403V42.0835H38.027V43.4199H35.9381V49.1536H34.5154V43.4199H34.5115Z" fill="black"/>
<path d="M45.6302 49.2358C45.1089 49.2358 44.6661 49.1339 44.3016 48.9301C43.941 48.742 43.6706 48.5421 43.4864 48.3305C43.2121 48.0366 43.02 47.6956 42.8985 47.3155C42.7771 46.9431 42.7144 46.3749 42.7144 45.6145C42.7144 44.8621 42.7771 44.2899 42.8985 43.898C43.024 43.4982 43.2199 43.1651 43.4864 42.9025C43.6824 42.6713 43.9528 42.4636 44.3016 42.2755C44.6543 42.0873 45.0972 41.9972 45.6302 41.9972C46.1789 41.9972 46.6296 42.0913 46.9862 42.2755C47.3272 42.4597 47.5897 42.6713 47.7779 42.9025C48.0522 43.1651 48.2521 43.4982 48.3775 43.898C48.4911 44.3055 48.546 44.8777 48.546 45.6145C48.546 46.3592 48.4911 46.9275 48.3775 47.3155C48.2482 47.7074 48.0522 48.0444 47.7779 48.3305C47.7308 48.3775 47.6838 48.4285 47.6289 48.4833C47.5741 48.5421 47.5114 48.5931 47.4447 48.6362C47.3193 48.7499 47.1665 48.8478 46.9901 48.9301C46.6256 49.1339 46.171 49.2358 45.6302 49.2358ZM45.6302 47.8132C45.881 47.8132 46.1083 47.7622 46.3121 47.6643C46.5159 47.5702 46.6727 47.4487 46.7746 47.3037C46.9235 47.1077 47.0175 46.9039 47.0528 46.6923C47.0724 46.5786 47.0881 46.4336 47.0998 46.2573C47.1116 46.0809 47.1195 45.8732 47.1195 45.6302C47.1195 45.3794 47.1116 45.1638 47.0998 44.9836C47.0842 44.8033 47.0685 44.6505 47.0528 44.529C47.0175 44.3173 46.9235 44.1214 46.7746 43.9411C46.6688 43.7922 46.5159 43.6667 46.3121 43.5648C46.1279 43.4708 45.9006 43.4238 45.6302 43.4238C45.3794 43.4238 45.156 43.4708 44.9639 43.5648C44.7758 43.655 44.619 43.7804 44.4858 43.9411C44.3643 44.1018 44.2742 44.2938 44.2193 44.529C44.1644 44.768 44.137 45.1325 44.137 45.6185C44.137 46.1084 44.1644 46.4689 44.2193 46.6962C44.2742 46.9275 44.3643 47.1312 44.4858 47.3076C44.6269 47.4526 44.7837 47.5741 44.9639 47.6682C45.1873 47.7622 45.4107 47.8132 45.6302 47.8132Z" fill="black"/>
<path d="M53.1631 47.8133H53.9743C54.0958 47.5076 54.2056 47.1901 54.3036 46.8609C54.4015 46.5317 54.4799 46.1437 54.5387 45.7087C54.5975 45.2737 54.6445 44.7603 54.6798 44.1763C54.7151 43.5885 54.7307 42.8948 54.7307 42.0835H59.5003V47.8133H60.4762V50.9682H59.1398V49.1575H54.5074V50.9682H53.167V47.8133H53.1631ZM58.0738 47.8133V43.4199H56.0789C56.0789 43.996 56.0632 44.5055 56.0319 44.9406C56.0005 45.3756 55.9574 45.7714 55.8986 46.1202C55.8399 46.469 55.7732 46.7786 55.6988 47.0529C55.6204 47.3273 55.5381 47.582 55.4519 47.8133H58.0738Z" fill="black"/>
<path d="M65.4531 42.0835H66.8758V46.8805L69.9484 42.0835H71.371V49.1536H69.9484V44.2821L66.8758 49.1536H65.4531V42.0835Z" fill="black"/>
<path d="M79.7425 49.2358C79.2212 49.2358 78.7784 49.1339 78.4139 48.9301C78.0534 48.742 77.7829 48.5421 77.5987 48.3305C77.3244 48.0366 77.1324 47.6956 77.0109 47.3155C76.8894 46.9431 76.8267 46.3749 76.8267 45.6145C76.8267 44.8621 76.8894 44.2899 77.0109 43.898C77.1363 43.4982 77.3322 43.1651 77.5987 42.9025C77.7947 42.6713 78.0651 42.4636 78.4139 42.2755C78.7666 42.0873 79.2095 41.9972 79.7425 41.9972C80.2912 41.9972 80.7419 42.0913 81.0985 42.2755C81.4395 42.4597 81.7021 42.6713 81.8902 42.9025C82.1645 43.1651 82.3644 43.4982 82.4898 43.898C82.6035 44.3055 82.6583 44.8777 82.6583 45.6145C82.6583 46.3592 82.6035 46.9275 82.4898 47.3155C82.3605 47.7074 82.1645 48.0444 81.8902 48.3305C81.8432 48.3775 81.7961 48.4285 81.7413 48.4833C81.6864 48.5421 81.6237 48.5931 81.5571 48.6362C81.4316 48.7499 81.2788 48.8478 81.1024 48.9301C80.734 49.1339 80.2833 49.2358 79.7425 49.2358ZM79.7425 47.8132C79.9933 47.8132 80.2206 47.7622 80.4244 47.6643C80.6282 47.5702 80.785 47.4487 80.8869 47.3037C81.0358 47.1077 81.1299 46.9039 81.1651 46.6923C81.1847 46.5786 81.2004 46.4336 81.2122 46.2573C81.2239 46.0809 81.2318 45.8732 81.2318 45.6302C81.2318 45.3794 81.2239 45.1638 81.2122 44.9836C81.1965 44.8033 81.1808 44.6505 81.1651 44.529C81.1299 44.3173 81.0358 44.1214 80.8869 43.9411C80.7811 43.7922 80.6282 43.6667 80.4244 43.5648C80.2402 43.4708 80.0129 43.4238 79.7425 43.4238C79.4917 43.4238 79.2683 43.4708 79.0762 43.5648C78.8881 43.655 78.7314 43.7804 78.5981 43.9411C78.4766 44.1018 78.3865 44.2938 78.3316 44.529C78.2767 44.768 78.2493 45.1325 78.2493 45.6185C78.2493 46.1084 78.2767 46.4689 78.3316 46.6962C78.3865 46.9275 78.4766 47.1312 78.5981 47.3076C78.7392 47.4526 78.896 47.5741 79.0762 47.6682C79.2957 47.7622 79.5191 47.8132 79.7425 47.8132Z" fill="black"/>
<path d="M87.271 47.8133H88.0823C88.2038 47.5076 88.3135 47.1901 88.4115 46.8609C88.5094 46.5317 88.5878 46.1437 88.6466 45.7087C88.7054 45.2737 88.7524 44.7603 88.7877 44.1763C88.823 43.5885 88.8386 42.8948 88.8386 42.0835H93.6082V47.8133H94.5841V50.9682H93.2477V49.1575H88.6153V50.9682H87.2749V47.8133H87.271ZM92.1817 47.8133V43.4199H90.1868C90.1868 43.996 90.1712 44.5055 90.1398 44.9406C90.1084 45.3756 90.0653 45.7714 90.0066 46.1202C89.9478 46.469 89.8811 46.7786 89.8067 47.0529C89.7283 47.3273 89.646 47.582 89.5598 47.8133H92.1817Z" fill="black"/>
<path d="M99.5654 42.0835H100.988V44.8426H103.794V42.0835H105.217V49.1536H103.794V46.1829H100.988V49.1536H99.5654V42.0835Z" fill="black"/>
<path d="M113.584 49.2358C113.063 49.2358 112.62 49.1339 112.256 48.9301C111.895 48.742 111.625 48.5421 111.441 48.3305C111.166 48.0366 110.974 47.6956 110.853 47.3155C110.731 46.9431 110.668 46.3749 110.668 45.6145C110.668 44.8621 110.731 44.2899 110.853 43.898C110.978 43.4982 111.174 43.1651 111.441 42.9025C111.636 42.6713 111.907 42.4636 112.256 42.2755C112.608 42.0873 113.051 41.9972 113.584 41.9972C114.133 41.9972 114.584 42.0913 114.94 42.2755C115.281 42.4597 115.544 42.6713 115.732 42.9025C116.006 43.1651 116.206 43.4982 116.332 43.898C116.445 44.3055 116.5 44.8777 116.5 45.6145C116.5 46.3592 116.445 46.9275 116.332 47.3155C116.202 47.7074 116.006 48.0444 115.732 48.3305C115.685 48.3775 115.638 48.4285 115.583 48.4833C115.528 48.5421 115.465 48.5931 115.399 48.6362C115.273 48.7499 115.121 48.8478 114.944 48.9301C114.576 49.1339 114.125 49.2358 113.584 49.2358ZM113.584 47.8132C113.835 47.8132 114.062 47.7622 114.266 47.6643C114.47 47.5702 114.627 47.4487 114.729 47.3037C114.878 47.1077 114.972 46.9039 115.007 46.6923C115.027 46.5786 115.042 46.4336 115.054 46.2573C115.066 46.0809 115.074 45.8732 115.074 45.6302C115.074 45.3794 115.066 45.1638 115.054 44.9836C115.038 44.8033 115.023 44.6505 115.007 44.529C114.972 44.3173 114.878 44.1214 114.729 43.9411C114.623 43.7922 114.47 43.6667 114.266 43.5648C114.082 43.4708 113.855 43.4238 113.584 43.4238C113.333 43.4238 113.11 43.4708 112.918 43.5648C112.73 43.655 112.573 43.7804 112.44 43.9411C112.318 44.1018 112.228 44.2938 112.173 44.529C112.119 44.768 112.091 45.1325 112.091 45.6185C112.091 46.1084 112.119 46.4689 112.173 46.6962C112.228 46.9275 112.318 47.1312 112.44 47.3076C112.581 47.4526 112.738 47.5741 112.918 47.6682C113.141 47.7622 113.361 47.8132 113.584 47.8132Z" fill="black"/>
<path d="M124.746 49.2358C124.366 49.2358 124.001 49.181 123.656 49.0712C123.495 49.0203 123.323 48.9419 123.139 48.8322C122.97 48.7577 122.806 48.6519 122.641 48.5108C122.331 48.2286 122.088 47.8602 121.912 47.4056C121.708 46.9628 121.606 46.371 121.606 45.6342C121.606 44.917 121.697 44.337 121.873 43.8902C122.057 43.3964 122.284 43.024 122.555 42.7732C122.825 42.5067 123.143 42.3068 123.503 42.1736C123.84 42.0521 124.181 41.9894 124.526 41.9894C125.334 42.009 126.019 42.2716 126.576 42.785C127.136 43.3062 127.422 44.0391 127.442 44.9797V46.1515H123.037C123.037 46.7198 123.202 47.1509 123.527 47.4448C123.84 47.7427 124.24 47.8955 124.726 47.8955C125.302 47.8955 125.819 47.6682 126.274 47.2097L127.309 48.0875C126.564 48.8635 125.714 49.2476 124.746 49.2358ZM126.012 44.9875C125.992 44.4467 125.847 44.0313 125.569 43.7412C125.294 43.4747 124.946 43.3376 124.518 43.3376C124.091 43.3376 123.742 43.4708 123.468 43.7412C123.202 44.0313 123.053 44.4467 123.025 44.9875H126.012Z" fill="black"/>
<path d="M142.762 49.2358C142.241 49.2358 141.798 49.1339 141.433 48.9301C141.073 48.742 140.802 48.5421 140.618 48.3305C140.344 48.0366 140.152 47.6956 140.03 47.3155C139.909 46.9431 139.846 46.3749 139.846 45.6145C139.846 44.8621 139.909 44.2899 140.03 43.898C140.156 43.4982 140.352 43.1651 140.618 42.9025C140.814 42.6713 141.085 42.4636 141.433 42.2755C141.786 42.0873 142.229 41.9972 142.762 41.9972C143.311 41.9972 143.761 42.0913 144.118 42.2755C144.459 42.4597 144.722 42.6713 144.91 42.9025C145.184 43.1651 145.384 43.4982 145.509 43.898C145.623 44.3055 145.678 44.8777 145.678 45.6145C145.678 46.3592 145.623 46.9275 145.509 47.3155C145.38 47.7074 145.184 48.0444 144.91 48.3305C144.863 48.3775 144.816 48.4285 144.761 48.4833C144.706 48.5421 144.643 48.5931 144.577 48.6362C144.451 48.7499 144.298 48.8478 144.122 48.9301C143.754 49.1339 143.303 49.2358 142.762 49.2358ZM142.762 47.8132C143.013 47.8132 143.24 47.7622 143.444 47.6643C143.648 47.5702 143.805 47.4487 143.906 47.3037C144.055 47.1077 144.149 46.9039 144.185 46.6923C144.204 46.5786 144.22 46.4336 144.232 46.2573C144.243 46.0809 144.251 45.8732 144.251 45.6302C144.251 45.3794 144.243 45.1638 144.232 44.9836C144.216 44.8033 144.2 44.6505 144.185 44.529C144.149 44.3173 144.055 44.1214 143.906 43.9411C143.801 43.7922 143.648 43.6667 143.444 43.5648C143.26 43.4708 143.032 43.4238 142.762 43.4238C142.511 43.4238 142.288 43.4708 142.096 43.5648C141.908 43.655 141.751 43.7804 141.618 43.9411C141.496 44.1018 141.406 44.2938 141.351 44.529C141.296 44.768 141.269 45.1325 141.269 45.6185C141.269 46.1084 141.296 46.4689 141.351 46.6962C141.406 46.9275 141.496 47.1312 141.618 47.3076C141.759 47.4526 141.915 47.5741 142.096 47.6682C142.319 47.7622 142.543 47.8132 142.762 47.8132Z" fill="black"/>
<path d="M153.794 49.236C152.948 49.236 152.215 48.9538 151.596 48.3855C150.933 47.8172 150.596 46.9002 150.588 45.6265C150.608 44.3332 150.941 43.4004 151.596 42.8321C152.227 42.256 152.959 41.9777 153.794 41.9934C154.343 42.013 154.829 42.1267 155.244 42.3344C155.675 42.5578 156.04 42.8556 156.334 43.228L155.283 44.1607C154.923 43.6747 154.449 43.4278 153.853 43.42C152.63 43.4004 152.015 44.1372 152.007 45.6265C152.015 47.1001 152.63 47.829 153.853 47.8133C154.457 47.7937 154.935 47.5508 155.283 47.0765L156.334 48.0093C156.016 48.362 155.652 48.652 155.244 48.8754C154.817 49.1145 154.335 49.236 153.794 49.236Z" fill="black"/>
<path d="M161.284 42.0835H164.678C165.329 42.0835 165.846 42.2559 166.23 42.5969C166.614 42.9418 166.81 43.4003 166.81 43.9764C166.81 44.6858 166.481 45.1914 165.823 45.4971C166.175 45.6578 166.45 45.8694 166.638 46.1398C166.83 46.4102 166.924 46.7512 166.924 47.1588C166.924 47.7702 166.736 48.2561 166.359 48.6167C165.983 48.9773 165.458 49.1536 164.788 49.1536H161.288V42.0835H161.284ZM164.412 44.9876C165.078 44.9876 165.411 44.6937 165.411 44.1097C165.411 43.8354 165.325 43.6276 165.156 43.4866C164.988 43.3415 164.737 43.271 164.412 43.271H162.711V44.9876H164.412ZM164.506 47.97C164.823 47.97 165.074 47.8838 165.254 47.7114C165.435 47.5389 165.529 47.3077 165.529 47.0255C165.529 46.7277 165.438 46.4925 165.254 46.3318C165.074 46.1672 164.823 46.0849 164.506 46.0849H162.707V47.97H164.506Z" fill="black"/>
<path d="M175.169 49.2358C174.789 49.2358 174.425 49.181 174.08 49.0712C173.919 49.0203 173.747 48.9419 173.563 48.8322C173.394 48.7577 173.23 48.6519 173.065 48.5108C172.755 48.2286 172.512 47.8602 172.336 47.4056C172.132 46.9628 172.03 46.371 172.03 45.6342C172.03 44.917 172.12 44.337 172.297 43.8902C172.481 43.3964 172.708 43.024 172.979 42.7732C173.249 42.5067 173.567 42.3068 173.927 42.1736C174.264 42.0521 174.605 41.9894 174.95 41.9894C175.757 42.009 176.443 42.2716 177 42.785C177.56 43.3062 177.846 44.0391 177.866 44.9797V46.1515H173.461C173.461 46.7198 173.625 47.1509 173.951 47.4448C174.264 47.7427 174.664 47.8955 175.15 47.8955C175.726 47.8955 176.243 47.6682 176.698 47.2097L177.733 48.0875C176.988 48.8635 176.138 49.2476 175.169 49.2358ZM176.435 44.9875C176.416 44.4467 176.271 44.0313 175.993 43.7412C175.718 43.4747 175.369 43.3376 174.942 43.3376C174.515 43.3376 174.166 43.4708 173.892 43.7412C173.625 44.0313 173.476 44.4467 173.449 44.9875H176.435Z" fill="black"/>
<path d="M192.034 49.1536H183.313V42.0835H184.736V47.8133H187.135V42.0835H188.557V47.8133H190.94V42.0835H192.363V47.8133H193.37V50.9682H192.03V49.1536H192.034Z" fill="black"/>
<path d="M201.141 49.2358C200.761 49.2358 200.397 49.181 200.052 49.0712C199.891 49.0203 199.719 48.9419 199.534 48.8322C199.366 48.7577 199.201 48.6519 199.037 48.5108C198.727 48.2286 198.484 47.8602 198.308 47.4056C198.104 46.9628 198.002 46.371 198.002 45.6342C198.002 44.917 198.092 44.337 198.268 43.8902C198.453 43.3964 198.68 43.024 198.95 42.7732C199.221 42.5067 199.538 42.3068 199.899 42.1736C200.236 42.0521 200.577 41.9894 200.922 41.9894C201.729 42.009 202.415 42.2716 202.971 42.785C203.532 43.3062 203.818 44.0391 203.838 44.9797V46.1515H199.425C199.425 46.7198 199.589 47.1509 199.914 47.4448C200.228 47.7427 200.628 47.8955 201.114 47.8955C201.69 47.8955 202.207 47.6682 202.662 47.2097L203.696 48.0875C202.96 48.8635 202.109 49.2476 201.141 49.2358ZM202.407 44.9875C202.387 44.4467 202.242 44.0313 201.964 43.7412C201.69 43.4747 201.341 43.3376 200.914 43.3376C200.487 43.3376 200.138 43.4708 199.864 43.7412C199.597 44.0313 199.448 44.4467 199.421 44.9875H202.407Z" fill="black"/>
<path d="M209.285 42.0835H210.708V44.8426H213.514V42.0835H214.937V49.1536H213.514V46.1829H210.708V49.1536H209.285V42.0835Z" fill="black"/>
<path d="M220.741 42.0835H222.164V46.8805L225.236 42.0835H226.659V49.1536H225.236V44.2821L222.164 49.1536H220.741V42.0835Z" fill="black"/>
<path d="M235.253 49.2358C234.873 49.2358 234.509 49.181 234.164 49.0712C234.003 49.0203 233.831 48.9419 233.647 48.8322C233.478 48.7577 233.314 48.6519 233.149 48.5108C232.839 48.2286 232.596 47.8602 232.42 47.4056C232.216 46.9628 232.114 46.371 232.114 45.6342C232.114 44.917 232.204 44.337 232.381 43.8902C232.565 43.3964 232.792 43.024 233.063 42.7732C233.333 42.5067 233.651 42.3068 234.011 42.1736C234.348 42.0521 234.689 41.9894 235.034 41.9894C235.841 42.009 236.527 42.2716 237.084 42.785C237.644 43.3062 237.93 44.0391 237.95 44.9797V46.1515H233.545C233.545 46.7198 233.709 47.1509 234.035 47.4448C234.348 47.7427 234.748 47.8955 235.234 47.8955C235.81 47.8955 236.327 47.6682 236.782 47.2097L237.817 48.0875C237.072 48.8635 236.218 49.2476 235.253 49.2358ZM236.519 44.9875C236.5 44.4467 236.355 44.0313 236.077 43.7412C235.802 43.4747 235.453 43.3376 235.026 43.3376C234.599 43.3376 234.25 43.4708 233.976 43.7412C233.709 44.0313 233.56 44.4467 233.533 44.9875H236.519Z" fill="black"/>
</g>
<defs>
<linearGradient id="paint0_linear_17_609" x1="105.276" y1="29.8836" x2="134.444" y2="7.11725" gradientUnits="userSpaceOnUse">
<stop stop-color="#3CB63B"/>
<stop offset="0.6345"/>
<stop offset="1"/>
</linearGradient>
<linearGradient id="paint1_linear_17_609" x1="0.000744635" y1="37.2732" x2="86.5606" y2="37.2732" gradientUnits="userSpaceOnUse">
<stop stop-color="#3CB63B"/>
<stop offset="0.6345"/>
<stop offset="1"/>
</linearGradient>
<linearGradient id="paint2_linear_17_609" x1="238.823" y1="37.2732" x2="152.263" y2="37.2732" gradientUnits="userSpaceOnUse">
<stop stop-color="#3CB63B"/>
<stop offset="0.6345"/>
<stop offset="1"/>
</linearGradient>
</defs>
</svg>
